<svg width="264" height="264" viewBox="0 0 264 264" fill="none" xmlns="http://www.w3.org/2000/svg">
<path d="M213.811 30.4993C210.203 28.7026 208.721 24.2733 210.518 20.6653L218.365 4.92798C220.161 1.31998 224.591 -0.161356 228.199 1.63531C231.807 3.43198 233.288 7.86131 231.491 11.4693L223.645 27.2066C221.848 30.8146 217.419 32.296 213.811 30.4993ZM220.997 46.6253L220.799 46.0166C219.575 42.3573 221.562 38.368 225.221 37.1433L253.851 27.6393C257.503 26.4146 261.507 28.402 262.724 32.0613L262.922 32.67C264.147 36.3293 262.152 40.326 258.493 41.5506L229.871 51.0473C226.219 52.272 222.222 50.2846 220.997 46.6253M224.767 63.228C222.97 66.836 224.451 71.2653 228.059 73.062L243.797 80.9086C247.405 82.7053 251.834 81.224 253.631 77.616C255.427 74.008 253.946 69.5786 250.338 67.782L234.601 59.9353C230.993 58.1386 226.563 59.62 224.767 63.228" fill="#FA743E"/>
<path d="M81.6201 234.857C73.9788 232.298 58.7548 227.883 61.9814 202.033L66.7188 164.091C67.6061 156.977 75.3501 154.814 83.7981 150.81C91.1388 147.327 108.841 135.388 113.197 100.525C116.996 70.048 111.254 21.8973 109.751 10.274L76.1788 6.39466L42.5921 2.508C38.4708 13.486 21.8901 59.048 18.6341 89.5913C14.9161 124.527 29.4288 140.191 35.7794 145.259C43.0908 151.081 50.1381 154.953 49.3754 162.081C48.6201 169.209 48.0774 174.196 45.3274 200.105C42.5701 226.006 26.7374 226.827 18.7148 227.575C3.48342 228.991 2.64009 241.377 10.0028 242.154C17.3801 242.946 48.3928 246.576 48.3928 246.576C48.3928 246.576 79.4201 250.125 86.7754 251.035C94.1234 251.966 96.1254 239.712 81.6201 234.857V234.857Z" fill="#E1E8ED"/>
<path d="M101.075 25.784C98.2665 27.566 83.7759 35.376 66.2932 36.8427C54.1712 37.8693 39.1525 36.3293 36.6885 44.4767C31.7165 60.9107 27.7639 75.4307 26.1726 90.398C23.1512 118.741 32.9779 132.411 38.8592 137.918L39.0206 138.057C39.7392 138.637 46.7352 143.983 59.9205 145.508C73.0179 147.026 81.3119 143.506 82.2652 143.073C82.3679 143.029 82.3972 143.007 82.4925 142.956C89.4812 138.93 102.146 127.864 105.673 99.594C108.269 78.7527 106.179 48.7447 104.251 29.216C104.104 27.72 103.884 24.002 101.075 25.784Z" fill="#FFCC4D"/>
<path d="M90.5813 52.6386C93.1936 52.6386 95.3113 50.521 95.3113 47.9086C95.3113 45.2963 93.1936 43.1786 90.5813 43.1786C87.969 43.1786 85.8513 45.2963 85.8513 47.9086C85.8513 50.521 87.969 52.6386 90.5813 52.6386Z" fill="#FFD983"/>
<path d="M75.1006 68.398C77.7129 68.398 79.8306 66.2803 79.8306 63.668C79.8306 61.0557 77.7129 58.938 75.1006 58.938C72.4883 58.938 70.3706 61.0557 70.3706 63.668C70.3706 66.2803 72.4883 68.398 75.1006 68.398Z" fill="#FFD983"/>
<path d="M92.8474 86.5627C95.4597 86.5627 97.5774 84.445 97.5774 81.8327C97.5774 79.2204 95.4597 77.1027 92.8474 77.1027C90.2351 77.1027 88.1174 79.2204 88.1174 81.8327C88.1174 84.445 90.2351 86.5627 92.8474 86.5627Z" fill="#FFD983"/>
<path d="M67.2686 98.3693C69.8809 98.3693 71.9986 96.2516 71.9986 93.6393C71.9986 91.027 69.8809 88.9093 67.2686 88.9093C64.6563 88.9093 62.5386 91.027 62.5386 93.6393C62.5386 96.2516 64.6563 98.3693 67.2686 98.3693Z" fill="#FFD983"/>
<path d="M52.1546 78.76C54.7669 78.76 56.8846 76.6423 56.8846 74.03C56.8846 71.4177 54.7669 69.3 52.1546 69.3C49.5423 69.3 47.4246 71.4177 47.4246 74.03C47.4246 76.6423 49.5423 78.76 52.1546 78.76Z" fill="#FFD983"/>
<path d="M49.6321 56.386C52.2444 56.386 54.3621 54.2683 54.3621 51.656C54.3621 49.0437 52.2444 46.926 49.6321 46.926C47.0198 46.926 44.9021 49.0437 44.9021 51.656C44.9021 54.2683 47.0198 56.386 49.6321 56.386Z" fill="#FFD983"/>
<path d="M152.482 245.498C160.123 242.939 175.347 238.524 172.121 212.674L167.383 174.731C166.496 167.618 158.752 165.455 150.304 161.451C142.963 157.967 125.261 146.029 120.905 111.166C117.106 80.6887 122.848 32.538 124.351 20.9147L157.923 17.0353L191.495 13.156C195.617 24.134 212.197 69.696 215.453 100.239C219.171 135.175 204.659 150.839 198.308 155.907C190.997 161.729 183.949 165.601 184.712 172.729C185.467 179.857 186.01 184.844 188.76 210.753C191.517 236.654 207.35 237.475 215.373 238.223C230.604 239.639 231.447 252.025 224.085 252.802C216.707 253.594 185.695 257.224 185.695 257.224C185.695 257.224 154.667 260.773 147.312 261.683C139.979 262.607 137.977 250.36 152.482 245.498Z" fill="#E1E8ED"/>
<path d="M133.027 36.4247C135.835 38.2067 150.333 46.0167 167.809 47.4834C179.931 48.5027 194.957 46.9627 197.421 55.1174C202.393 71.5514 206.345 86.0714 207.937 101.039C210.958 129.382 201.131 143.051 195.25 148.559L195.089 148.698C194.37 149.277 187.374 154.623 174.189 156.149C161.091 157.667 152.797 154.147 151.844 153.714C151.741 153.67 151.712 153.648 151.617 153.597C144.628 149.571 131.963 138.505 128.436 110.235C125.84 89.3934 127.93 59.3854 129.859 39.8567C129.998 38.3607 130.218 34.6427 133.027 36.4247V36.4247Z" fill="#FFCC4D"/>
<path d="M143.521 63.2867C146.133 63.2867 148.251 61.169 148.251 58.5567C148.251 55.9444 146.133 53.8267 143.521 53.8267C140.908 53.8267 138.791 55.9444 138.791 58.5567C138.791 61.169 140.908 63.2867 143.521 63.2867Z" fill="#FFD983"/>
<path d="M159.001 79.0387C161.614 79.0387 163.731 76.921 163.731 74.3087C163.731 71.6964 161.614 69.5787 159.001 69.5787C156.389 69.5787 154.271 71.6964 154.271 74.3087C154.271 76.921 156.389 79.0387 159.001 79.0387Z" fill="#FFD983"/>
<path d="M141.255 97.2033C143.867 97.2033 145.985 95.0857 145.985 92.4733C145.985 89.861 143.867 87.7433 141.255 87.7433C138.642 87.7433 136.525 89.861 136.525 92.4733C136.525 95.0857 138.642 97.2033 141.255 97.2033Z" fill="#FFD983"/>
<path d="M166.833 109.017C169.446 109.017 171.563 106.9 171.563 104.287C171.563 101.675 169.446 99.5573 166.833 99.5573C164.221 99.5573 162.103 101.675 162.103 104.287C162.103 106.9 164.221 109.017 166.833 109.017Z" fill="#FFD983"/>
<path d="M181.947 89.4007C184.56 89.4007 186.677 87.283 186.677 84.6707C186.677 82.0584 184.56 79.9407 181.947 79.9407C179.335 79.9407 177.217 82.0584 177.217 84.6707C177.217 87.283 179.335 89.4007 181.947 89.4007Z" fill="#FFD983"/>
<path d="M184.47 67.034C187.082 67.034 189.2 64.9163 189.2 62.304C189.2 59.6917 187.082 57.574 184.47 57.574C181.858 57.574 179.74 59.6917 179.74 62.304C179.74 64.9163 181.858 67.034 184.47 67.034Z" fill="#FFD983"/>
</svg>
